<svg width="35" height="34" viewBox="0 0 35 34" fill="none" xmlns="http://www.w3.org/2000/svg">
<g clip-path="url(#clip0_49_234)">
<path d="M29.0958 6.07295C29.1127 6.45535 29.1355 6.83676 29.1464 7.21916C29.1563 7.54721 29.312 7.75274 29.6304 7.83278C30.1939 7.97408 30.7603 8.1055 31.3217 8.25569C31.6074 8.33177 31.8941 8.41873 32.1649 8.53631C33.1836 8.97602 33.5893 9.80209 33.258 10.8525C33.0884 11.39 32.8404 11.9058 32.5964 12.4166C31.9943 13.6725 31.9992 13.6992 33.1043 14.5747C33.5209 14.9047 33.9425 15.2367 34.3065 15.6201C35.1546 16.5134 35.1616 17.4955 34.3006 18.3799C33.8204 18.874 33.256 19.287 32.7263 19.7326C32.0835 20.2721 32.0568 20.371 32.402 21.1476C32.6678 21.7444 32.9763 22.3254 33.1955 22.9391C33.6459 24.1999 33.2173 25.0991 31.9516 25.5408C31.3237 25.7601 30.6611 25.8807 30.0153 26.0457C29.2178 26.2492 29.1613 26.3075 29.1255 27.1158C29.0968 27.7571 29.1206 28.4014 29.074 29.0407C28.9807 30.3203 28.1832 31.0594 27.0107 30.9704C26.6536 30.9438 26.2985 30.8776 25.9463 30.8114C25.4841 30.7244 25.0238 30.6256 24.5665 30.5179C24.1549 30.4211 23.8682 30.5574 23.6837 30.9339C23.4565 31.3993 23.2383 31.8706 22.9854 32.3222C22.782 32.6868 22.5688 33.0564 22.2979 33.3716C21.7524 34.0049 21.0094 34.168 20.2476 33.8192C19.8587 33.6413 19.5016 33.3844 19.1495 33.1364C18.7954 32.8884 18.471 32.5979 18.1218 32.3419C17.5505 31.923 17.3997 31.922 16.8373 32.334C16.4881 32.59 16.1627 32.8795 15.8106 33.1295C15.4684 33.3726 15.1242 33.6245 14.7472 33.8014C13.9467 34.1779 13.1621 34.0109 12.6096 33.3231C12.2961 32.9328 12.065 32.4744 11.818 32.0346C11.6127 31.669 11.4341 31.2886 11.2506 30.9121C11.072 30.5456 10.7873 30.427 10.3945 30.5139C9.8023 30.6454 9.2111 30.7827 8.61394 30.8855C8.27569 30.9438 7.92156 30.9793 7.58132 30.9507C6.69254 30.8756 6.10232 30.3677 5.95651 29.4883C5.85632 28.8845 5.84739 28.261 5.84442 27.6454C5.83648 26.2532 5.8464 26.2581 4.47652 25.936C3.95971 25.8145 3.43695 25.6969 2.93899 25.518C1.76155 25.0951 1.31715 24.2019 1.72485 23.0201C1.94903 22.3699 2.27736 21.7563 2.55709 21.1249C2.8884 20.3769 2.86063 20.2672 2.23272 19.7395C1.71195 19.3028 1.15745 18.8977 0.682301 18.4155C-0.225334 17.4946 -0.224342 16.4975 0.686269 15.5766C1.17035 15.0865 1.73576 14.6755 2.26546 14.2288C2.84972 13.7368 2.88344 13.6014 2.57197 12.8988C2.30216 12.2902 1.98474 11.6993 1.75956 11.0748C1.2993 9.79319 1.72683 8.895 3.01339 8.44936C3.64229 8.23198 4.30392 8.11142 4.95067 7.94641C5.72538 7.7478 5.78688 7.68456 5.8216 6.89901C5.85037 6.25772 5.82855 5.61347 5.87318 4.97416C5.9704 3.59081 6.79471 2.90999 8.17749 3.05031C8.46019 3.07896 8.74091 3.13232 9.01965 3.18765C9.48091 3.27856 9.94117 3.3754 10.3995 3.48014C10.7953 3.57104 11.075 3.4416 11.2536 3.07896C11.4331 2.71336 11.6127 2.34776 11.8041 1.98907C12.0074 1.60865 12.1959 1.21538 12.4449 0.865587C13.0956 -0.0464413 14.0122 -0.249993 14.9833 0.313232C15.4297 0.572118 15.8443 0.894243 16.249 1.21736C17.4612 2.1867 17.487 2.18768 18.6902 1.22625C19.0949 0.903136 19.5076 0.579035 19.954 0.318173C20.934 -0.254933 21.8664 -0.0464414 22.5182 0.884362C22.779 1.25589 22.9755 1.67386 23.1907 2.07603C23.3772 2.42384 23.5498 2.77858 23.7283 3.13133C23.891 3.45247 24.1529 3.56116 24.4991 3.48903C25.1052 3.36156 25.7083 3.2252 26.3173 3.11256C26.608 3.05821 26.9085 3.0177 27.2031 3.02659C28.3092 3.06118 28.9688 3.73507 29.075 4.92575C29.1087 5.30617 29.1117 5.68956 29.1285 6.07196C29.1166 6.07196 29.1067 6.07295 29.0958 6.07295ZM7.44741 27.8352C7.44741 28.2146 7.43947 28.5851 7.44939 28.9547C7.45832 29.2847 7.61604 29.4567 7.97116 29.3845C8.50483 29.2758 9.03949 29.177 9.57217 29.0654C11.3934 28.684 12.1314 29.0426 12.9339 30.7066C13.1105 31.0732 13.2831 31.4428 13.4726 31.8024C13.8515 32.5218 13.9507 32.5445 14.5915 32.0653C14.9387 31.8064 15.2739 31.5327 15.6142 31.2639C17.0009 30.1681 17.9244 30.1641 19.3112 31.2491C19.7209 31.5692 20.1226 31.8993 20.5462 32.1997C20.9856 32.5109 21.0808 32.4912 21.3447 32.0129C21.6601 31.4408 21.924 30.84 22.2404 30.2679C22.8872 29.095 23.6262 28.7472 24.9465 28.9873C25.5555 29.098 26.1547 29.2561 26.7637 29.3628C27.3767 29.4705 27.4888 29.3746 27.5087 28.7561C27.5275 28.1761 27.5067 27.595 27.5285 27.015C27.5831 25.5833 28.1028 24.9291 29.4846 24.5546C30.0223 24.4094 30.5698 24.3046 31.1085 24.1643C31.8534 23.9697 31.903 23.8669 31.5965 23.1723C31.3376 22.5853 31.046 22.0132 30.797 21.4223C30.3754 20.4204 30.5649 19.5399 31.3842 18.8078C31.532 18.6753 31.6788 18.5429 31.8316 18.4174C32.2046 18.1111 32.5894 17.8187 32.9535 17.5025C33.4504 17.0697 33.4495 16.9224 32.9436 16.4857C32.5408 16.1379 32.1163 15.8157 31.7056 15.4788C30.5093 14.4986 30.306 13.6666 30.9289 12.2536C31.163 11.723 31.4318 11.2082 31.659 10.6746C31.8812 10.1529 31.8256 10.0382 31.2731 9.88509C30.6174 9.70328 29.9508 9.56296 29.2952 9.3851C28.2487 9.10151 27.6366 8.43849 27.5662 7.33576C27.5374 6.89308 27.5354 6.44843 27.5226 6.00477C27.5126 5.68363 27.5106 5.36249 27.4958 5.04234C27.4809 4.7133 27.3301 4.53939 26.974 4.61153C26.4403 4.72022 25.9047 4.81607 25.373 4.93069C23.5696 5.32099 22.8177 4.9544 22.0113 3.28943C21.802 2.85664 21.5947 2.42088 21.3606 2.00093C21.0828 1.50391 20.9717 1.48118 20.5045 1.82011C20.0839 2.12444 19.6852 2.45941 19.2735 2.7766C17.9195 3.82005 17.0079 3.81708 15.6648 2.76869C15.6162 2.73016 15.5695 2.68965 15.5209 2.6521C15.148 2.36554 14.7839 2.06713 14.399 1.79738C13.9576 1.48711 13.8634 1.5049 13.6005 1.98216C13.2851 2.55526 13.0212 3.15505 12.7058 3.72716C12.06 4.90006 11.326 5.2459 9.9997 5.00776C9.39064 4.89907 8.7915 4.73998 8.18245 4.63327C7.56744 4.52556 7.45733 4.62042 7.43749 5.23997C7.41964 5.81999 7.44047 6.401 7.41765 6.98102C7.36111 8.41873 6.84728 9.06298 5.46152 9.44143C4.96059 9.57779 4.44973 9.68055 3.94582 9.80703C3.062 10.0294 3.03025 10.1015 3.3943 10.9256C3.68296 11.5787 3.99641 12.224 4.24341 12.8929C4.53703 13.6874 4.32475 14.3998 3.74347 15.0025C3.54607 15.2071 3.33181 15.3958 3.11457 15.5786C2.75449 15.881 2.37656 16.1626 2.02243 16.4709C1.48777 16.9363 1.48777 17.0657 2.03334 17.5351C2.51047 17.9471 3.0243 18.3186 3.49052 18.7425C4.42394 19.5933 4.58861 20.3304 4.11644 21.5033C3.90019 22.0399 3.62939 22.5557 3.39132 23.0843C3.03025 23.8867 3.07092 23.9667 3.924 24.1861C4.59456 24.358 5.27504 24.4993 5.9327 24.7117C6.79471 24.9894 7.27084 25.6159 7.3631 26.5141C7.40575 26.9557 7.41964 27.3994 7.44741 27.8352Z" fill="#97A0C4"/>
<path d="M11.9176 23.434C11.6557 23.2354 11.3949 23.1089 11.2401 22.9034C11.0497 22.6504 11.0903 22.3382 11.2828 22.0734C11.3621 21.9647 11.4613 21.8688 11.5575 21.773C15.1256 18.2177 18.6936 14.6635 22.2627 11.1092C22.3678 11.0045 22.473 10.8968 22.594 10.8128C22.8985 10.6033 23.3251 10.6498 23.584 10.9067C23.8438 11.1636 23.8924 11.5865 23.6841 11.8928C23.6018 12.0144 23.4927 12.1191 23.3885 12.2238C19.8126 15.788 16.2366 19.3521 12.6536 22.9103C12.4632 23.1 12.2102 23.2285 11.9176 23.434Z" fill="#97A0C4"/>
<path d="M16.2821 13.056C16.2771 14.5816 15.0124 15.8247 13.4768 15.8118C11.9651 15.8 10.7162 14.5401 10.7242 13.0352C10.7321 11.5274 11.981 10.2833 13.4957 10.2754C15.0203 10.2675 16.287 11.5303 16.2821 13.056ZM12.3242 13.0412C12.3222 13.6894 12.844 14.2239 13.4907 14.2358C14.1385 14.2467 14.7078 13.6795 14.6989 13.0342C14.69 12.39 14.1533 11.8683 13.5026 11.8693C12.84 11.8702 12.3262 12.3821 12.3242 13.0412Z" fill="#97A0C4"/>
<path d="M18.6646 20.956C18.6626 19.4422 19.9025 18.1952 21.4172 18.1863C22.9528 18.1774 24.2165 19.4215 24.2215 20.9471C24.2264 22.4639 22.9488 23.7326 21.4271 23.7227C19.9114 23.7119 18.6665 22.4659 18.6646 20.956ZM22.6224 20.954C22.6234 20.3058 22.0997 19.7713 21.4539 19.7624C20.8092 19.7525 20.2378 20.3236 20.2487 20.9669C20.2596 21.6101 20.7972 22.1319 21.447 22.1289C22.1036 22.1259 22.6205 21.6101 22.6224 20.954Z" fill="#97A0C4"/>
</g>
<defs>
<clipPath id="clip0_49_234">
<rect width="35" height="34" fill="white"/>
</clipPath>
</defs>
</svg>
