<svg width="44" height="35" viewBox="0 0 44 35" fill="none" xmlns="http://www.w3.org/2000/svg">
<g clip-path="url(#clip0_49_251)">
<path d="M43.4716 20.4856C43.4694 16.7266 43.5011 8.90207 43.4342 8.75436C43.3742 8.11201 43.0002 7.65207 42.5379 7.24137C40.6422 5.55941 38.7476 3.87633 36.8519 2.19437C36.283 1.69079 35.7369 1.16147 35.0966 0.740703C34.0247 0.0368088 32.861 -0.18141 31.6168 0.154311C30.7817 0.380363 30.0916 0.871634 29.4559 1.43676C27.2871 3.3638 25.1262 5.29755 22.9472 7.21116C22.2526 7.82105 21.933 8.55292 21.9398 9.46385C21.9545 11.646 21.9455 13.8271 21.9466 16.0093C21.9466 16.7624 21.9466 16.7624 21.1738 16.7624H17.5761C17.6475 16.599 17.6996 16.4871 17.7461 16.3741C18.409 14.7235 18.7534 13.0236 18.4373 11.251C18.1631 9.71564 17.3155 8.62231 15.7744 8.12656C15.1115 7.91394 14.7795 8.10306 14.6277 8.76331C14.5064 9.29375 14.3682 9.82195 14.2719 10.3569C13.9229 12.2906 13.1761 13.9524 11.3031 14.9316C10.1008 15.5605 9.19206 16.5117 8.49405 17.6621C8.38527 17.8412 8.25723 18.0102 8.12465 18.1724C7.80737 18.563 7.38245 18.7622 6.88614 18.8305C6.66517 18.8607 6.54959 18.8484 6.52467 18.5552C6.45668 17.7517 5.83459 17.1798 5.03686 17.1686C3.8618 17.1518 2.68674 17.1518 1.51168 17.1686C0.661829 17.1809 0.00574396 17.8311 0.00461082 18.6715C-0.00218798 23.6078 -0.00218798 28.5451 0.00461082 33.4813C0.00574396 34.3094 0.624435 34.9574 1.46635 34.9775C2.66861 35.0066 3.87313 35.0077 5.07652 34.9775C5.91731 34.9562 6.51447 34.3116 6.54053 33.4791C6.54733 33.2631 6.54166 33.0482 6.54166 32.7987C6.75696 32.8725 6.92013 32.9173 7.07537 32.9811C9.55014 34.014 12.1257 34.4392 14.8147 34.3598C17.0639 34.2926 19.3166 34.3463 21.5681 34.3452C22.1755 34.3452 22.7885 34.3844 23.3698 34.1527C23.4582 34.1169 23.5296 34.1415 23.6112 34.1718C24.0429 34.3318 24.4939 34.3475 24.9494 34.3475C29.6225 34.3419 34.2955 34.3407 38.9686 34.3385C39.5918 34.3385 40.2139 34.3452 40.8371 34.3363C42.1776 34.3184 43.0671 33.6413 43.4444 32.3656C43.4546 32.3298 43.5136 20.9377 43.5136 20.9377C43.4308 20.7933 43.4716 20.6366 43.4716 20.4856ZM5.1887 33.2497C5.18983 33.5742 5.07199 33.657 4.76831 33.6525C3.79155 33.6391 2.81365 33.6346 1.83689 33.6548C1.47542 33.6626 1.34964 33.5686 1.35191 33.1881C1.37004 30.8112 1.36097 28.4332 1.36097 26.0563C1.36097 23.6928 1.3689 21.3293 1.35304 18.9659C1.34964 18.5898 1.46862 18.4903 1.83689 18.4992C2.81365 18.5216 3.79041 18.516 4.76717 18.5014C5.07539 18.4958 5.1887 18.582 5.1887 18.9021C5.17963 23.685 5.17963 28.4679 5.1887 33.2497ZM18.7829 30.2707C19.9024 30.2808 21.0208 30.2729 22.1392 30.2763C22.3081 30.2774 22.4803 30.2841 22.6458 30.3166C23.3086 30.4453 23.771 31.007 23.7608 31.655C23.7506 32.2917 23.2984 32.8322 22.6537 32.9576C22.4747 32.9923 22.2877 33.0001 22.1052 33.0012C19.5557 33.0035 17.0061 32.9598 14.4577 33.0158C12.1416 33.0661 9.9286 32.6823 7.79264 31.8128C7.39038 31.6494 6.81248 31.6158 6.61872 31.3249C6.40795 31.0093 6.54393 30.4632 6.54393 30.0178C6.54166 26.871 6.5462 23.7241 6.53713 20.5773C6.536 20.2931 6.57226 20.18 6.90993 20.1599C7.87423 20.104 8.73428 19.7268 9.24532 18.9077C10.1371 17.4775 11.3382 16.411 12.7739 15.5426C14.4158 14.5489 15.0934 12.9397 15.4685 11.1648C15.5761 10.659 15.7053 10.1588 15.8367 9.60373C16.7795 10.1375 17.1025 10.9869 17.1602 11.937C17.2713 13.77 16.8804 15.4889 15.8164 17.0254C15.6475 17.2682 15.6169 17.5167 15.7608 17.7729C15.9183 18.0516 16.1835 18.1075 16.486 18.1075C18.9642 18.1031 21.4424 18.1087 23.9217 18.1031C24.5166 18.1019 25.0083 18.2832 25.3166 18.8103C25.8503 19.7268 25.1715 20.8179 24.0474 20.828C22.4475 20.8437 20.8463 20.8325 19.2464 20.8325C19.1047 20.8325 18.9631 20.8291 18.8214 20.8347C18.367 20.8515 18.1007 21.0899 18.0928 21.4815C18.0838 21.8866 18.3614 22.1552 18.8294 22.172C19.1976 22.1854 19.5659 22.1753 19.9342 22.1753C21.7053 22.1765 23.4752 22.1686 25.2452 22.1809C25.9738 22.1854 26.5403 22.7024 26.6038 23.3705C26.6695 24.0677 26.2389 24.6821 25.5556 24.8432C25.3936 24.8813 25.2191 24.8801 25.0503 24.8813C22.997 24.8835 20.9427 24.8813 18.8894 24.8835C18.3976 24.8846 18.1166 25.1129 18.094 25.5102C18.069 25.9511 18.3625 26.223 18.886 26.2241C20.7557 26.2275 22.6254 26.2185 24.495 26.2275C25.5115 26.2331 26.1766 27.1798 25.8163 28.0818C25.6021 28.6167 25.1058 28.9289 24.4338 28.93C22.6639 28.9345 20.8928 28.9323 19.1228 28.9323C18.9948 28.9323 18.8667 28.9233 18.741 28.9379C18.333 28.9838 18.0826 29.2557 18.0928 29.6306C18.103 30.0055 18.3636 30.2662 18.7829 30.2707ZM40.8768 32.9923C40.368 33.0091 39.8581 32.9956 39.3482 32.9956C34.6321 32.9979 29.9171 32.9979 25.2021 33.0068C24.8792 33.0079 24.7432 32.9979 24.9143 32.6174C25.2622 31.8419 25.1624 31.063 24.7579 30.2875C27.0185 29.9741 27.9216 27.6252 26.7749 26.0462C26.6412 25.8638 26.7148 25.8078 26.8576 25.6948C28.4723 24.4045 28.3307 22.2503 26.5585 21.1704C26.3806 21.063 26.3783 21.0059 26.4712 20.8302C27.5058 18.8719 26.248 16.8016 24.0078 16.7624C23.3064 16.7501 23.3064 16.7501 23.3064 16.0529C23.3052 13.8853 23.3154 11.7176 23.2973 9.55113C23.2916 8.97705 23.4707 8.54509 23.9126 8.15789C26.1483 6.20064 28.3477 4.20422 30.5913 2.25592C32.0179 1.01711 33.3539 1.03502 34.8258 2.21564C34.9244 2.29509 35.0241 2.37342 35.1182 2.45735C37.2983 4.39222 39.4751 6.32933 41.6586 8.25973C41.9997 8.56188 42.1515 8.91662 42.1515 9.36649C42.1493 16.8061 42.1527 24.2456 42.1527 31.6852C42.1527 32.4932 41.6926 32.9654 40.8768 32.9923Z" fill="#97A0C4"/>
<path d="M35.4649 24.3184C35.4536 23.4567 35.0094 22.9565 34.3261 22.6241C33.7357 22.3365 33.0933 22.2291 32.4542 22.1094C31.8411 21.9952 31.2462 21.8296 30.6887 21.542C28.5596 20.4453 28.3862 17.7495 30.3601 16.3887C30.7952 16.0888 31.2723 15.884 31.7913 15.7844C31.9975 15.7452 32.07 15.6579 32.0519 15.452C32.0338 15.2439 32.0349 15.0313 32.0542 14.8231C32.0916 14.4292 32.385 14.1774 32.7635 14.1931C33.1238 14.2087 33.4389 14.4706 33.3913 14.841C33.3063 15.508 33.5488 15.7676 34.2162 15.9433C35.2609 16.2175 35.9839 16.9594 36.4417 17.9319C36.6468 18.3661 36.5244 18.7566 36.1459 18.9256C35.7788 19.0901 35.4105 18.9547 35.219 18.516C34.5947 17.0915 32.8054 16.6237 31.3867 17.341C30.7159 17.6801 30.3295 18.2117 30.3465 18.9816C30.3624 19.728 30.8372 20.1353 31.4604 20.4252C32.0961 20.7206 32.7907 20.7922 33.4661 20.9332C34.2049 21.0877 34.9074 21.3316 35.5261 21.7725C37.4354 23.1367 37.2235 25.7766 35.1238 26.8274C34.6649 27.0568 34.1822 27.2101 33.6779 27.2851C33.4661 27.3164 33.3867 27.3847 33.406 27.5962C33.423 27.7909 33.4173 27.9878 33.406 28.1837C33.3845 28.5686 33.134 28.8215 32.7726 28.8394C32.3907 28.8585 32.0111 28.5966 32.0723 28.2228C32.2015 27.4384 31.7901 27.2649 31.1397 27.0724C29.8831 26.702 29.0446 25.8415 28.6729 24.578C28.5607 24.1953 28.7465 23.8327 29.0808 23.7186C29.4502 23.5933 29.8581 23.7589 29.9533 24.164C30.2309 25.3446 31.4411 26.072 32.9335 26.0127C33.5918 25.9869 34.2219 25.8403 34.7794 25.4699C35.2145 25.1823 35.4887 24.7963 35.4649 24.3184Z" fill="#97A0C4"/>
<path d="M32.7396 4.22876C31.3867 4.22653 30.3159 5.27845 30.3147 6.61014C30.3147 7.93624 31.4037 9.01502 32.7351 9.00719C34.0654 9.00047 35.16 7.90602 35.1464 6.59336C35.134 5.28516 34.062 4.231 32.7396 4.22876ZM32.7306 7.66319C32.1447 7.66654 31.6654 7.17751 31.6767 6.58552C31.6881 6.0092 32.1561 5.56493 32.743 5.57276C33.3243 5.5806 33.79 6.04837 33.7855 6.61797C33.7799 7.18199 33.2983 7.65983 32.7306 7.66319Z" fill="#97A0C4"/>
</g>
<defs>
<clipPath id="clip0_49_251">
<rect width="44" height="35" fill="white"/>
</clipPath>
</defs>
</svg>
