<svg width="32" height="32" viewBox="0 0 32 32" fill="none" xmlns="http://www.w3.org/2000/svg">
<g clip-path="url(#clip0_49_239)">
<path d="M30.9898 19.4217C30.3702 18.0058 29.7549 16.5875 29.1327 15.1725C28.9613 14.7817 28.839 14.3642 28.5827 14.015C28.4562 13.8425 28.407 13.6708 28.4078 13.465C28.4121 12.4867 28.418 11.5075 28.4078 10.5283C28.3943 9.08333 28.0089 7.73333 27.3044 6.46667C26.9429 5.8175 26.6033 5.1575 26.2324 4.51417C26.145 4.36417 26.1323 4.2275 26.2511 4.08333C26.3894 3.91417 26.4353 3.7125 26.4353 3.4975C26.437 2.58083 26.4361 1.66417 26.4353 0.748333C26.4353 0.3725 26.2791 0.109167 25.8972 0H20.6135C20.2035 0.105833 20.0839 0.2475 20.0805 0.684167C20.0728 1.6425 20.0771 2.6 20.0788 3.55833C20.0788 3.7275 20.0923 3.89917 20.2044 4.03333C20.3716 4.23083 20.3173 4.41083 20.2044 4.60583C19.7885 5.32 19.4099 6.05417 19.0186 6.78167C18.8947 7.01167 18.7759 7.06417 18.5204 6.98833C16.3662 6.35083 14.487 6.85 12.8531 8.33583C12.7776 8.40417 12.7156 8.53167 12.601 8.49583C12.4873 8.46083 12.5059 8.32167 12.4847 8.22417C12.2505 7.155 12.0111 6.0875 11.7862 5.01667C11.3499 2.94167 9.17876 1.20333 6.70117 1.53583C4.50962 1.82917 2.77387 3.7175 2.75689 5.88417C2.75095 6.6675 2.96314 7.40917 3.12356 8.16083C3.49957 9.92417 3.89341 11.6833 4.27281 13.4458C4.33902 13.755 4.31695 13.7808 3.98168 13.7858C3.71686 13.7892 3.45119 13.79 3.18637 13.7858C2.82649 13.78 2.5778 13.9367 2.43775 14.2592C1.66027 16.04 0.888729 17.8217 0.103607 19.5983C-0.236754 20.3692 0.321743 20.7767 0.904856 20.775C1.23418 20.7742 1.56266 20.775 1.89113 20.7758C2.37918 20.7775 2.38003 20.7775 2.38003 21.2658C2.38088 24.1292 2.38003 26.9933 2.38088 29.8567C2.38088 30.0542 2.37494 30.2525 2.43605 30.445C2.54045 30.7767 2.75774 30.98 3.11593 31.0142C4.3492 31.1325 5.58503 31.2267 6.81915 31.3367C7.90559 31.4342 8.99288 31.5167 10.0801 31.6117C11.2506 31.7133 12.4202 31.8242 13.5932 31.9083C14.0448 31.9408 14.5006 31.9125 14.9479 32H16.0937C16.373 31.9325 16.6607 31.9525 16.9425 31.9442C18.3209 31.9058 19.6875 31.7275 21.0608 31.6292C22.1379 31.5517 23.2133 31.4408 24.2896 31.345C25.5245 31.2358 26.7612 31.1525 27.9945 31.0233C28.4579 30.975 28.6947 30.7458 28.772 30.2933C28.8 30.1283 28.7915 29.9608 28.7915 29.7942C28.7923 26.9925 28.7923 24.1908 28.7923 21.3892C28.7923 21.285 28.7966 21.1808 28.7923 21.0767C28.783 20.865 28.8823 20.7758 29.0971 20.7792C29.4255 20.7833 29.7549 20.7817 30.0833 20.7792C31.0849 20.7733 31.3837 20.3233 30.9898 19.4217ZM21.4224 1.45833C21.419 1.30167 21.4555 1.245 21.6295 1.24583C22.71 1.25417 23.7913 1.2525 24.8727 1.24667C25.0221 1.24667 25.073 1.285 25.0696 1.4375C25.0603 1.895 25.0569 2.35333 25.0704 2.81083C25.0755 2.99167 24.9958 3.00917 24.8464 3.0075C24.3057 3.00083 23.765 3.005 23.2252 3.005C22.6947 3.005 22.1651 2.99833 21.6354 3.00833C21.4691 3.01167 21.4181 2.96667 21.4224 2.80083C21.4334 2.35333 21.4326 1.90583 21.4224 1.45833ZM19.4617 10.0717C19.5347 9.05083 19.8428 8.09667 20.3334 7.19667C20.8274 6.29083 21.3239 5.385 21.8103 4.475C21.8926 4.32 21.9783 4.24583 22.1702 4.24917C22.8916 4.2625 23.6131 4.25583 24.3346 4.25417C24.4508 4.25417 24.5535 4.24583 24.6231 4.38C25.2266 5.535 25.9133 6.6475 26.4574 7.83167C26.8571 8.70333 27.0464 9.63 27.049 10.5892C27.0515 11.5892 27.0422 12.5892 27.0574 13.5892C27.0608 13.8267 26.9683 13.8533 26.7638 13.8517C25.5857 13.8433 24.4084 13.8475 23.2303 13.8475C22.0641 13.8475 20.897 13.8392 19.7299 13.8542C19.4702 13.8575 19.4116 13.7792 19.4184 13.5392C19.4473 12.3833 19.3794 11.2267 19.4617 10.0717ZM4.1803 6.5375C3.83569 4.86333 4.92043 3.30083 6.64006 2.91C8.27312 2.53917 9.99869 3.52917 10.4018 5.14667C10.8288 6.86083 11.1717 8.595 11.5553 10.32C11.5774 10.4217 11.5426 10.5033 11.5137 10.5908C11.1835 11.5842 11.1377 12.5917 11.3906 13.605C11.4518 13.8517 11.3558 13.8517 11.1691 13.85C10.3101 13.8442 9.45122 13.8475 8.59226 13.8475C7.73414 13.8475 6.87517 13.8458 6.01621 13.8492C5.85749 13.85 5.75224 13.8467 5.7081 13.64C5.20477 11.2717 4.66835 8.90917 4.1803 6.5375ZM1.9497 19.4258C1.72987 19.4258 1.67215 19.3958 1.77061 19.175C2.34014 17.8917 2.90288 16.605 3.45289 15.3142C3.53777 15.1142 3.6583 15.0942 3.84163 15.095C5.57994 15.1 7.31824 15.0975 9.05654 15.0975C10.805 15.0975 12.5543 15.1025 14.3028 15.0933C14.5591 15.0917 14.6126 15.1333 14.504 15.3792C13.9412 16.6425 13.3912 17.9117 12.8455 19.1825C12.7699 19.36 12.6782 19.4275 12.4745 19.4267C8.96572 19.42 5.45771 19.42 1.9497 19.4258ZM14.6287 30.6767C12.2539 30.46 9.87731 30.26 7.50073 30.055C6.32856 29.9533 5.15724 29.8442 3.98423 29.7567C3.75845 29.7392 3.76439 29.6317 3.76439 29.475C3.76694 27.965 3.76609 26.455 3.76609 24.945C3.76609 23.6225 3.77203 22.2992 3.76015 20.9767C3.7576 20.7333 3.81956 20.665 4.07335 20.6658C7.02201 20.675 9.97153 20.6658 12.9202 20.6783C13.3887 20.68 13.6662 20.5133 13.8402 20.0833C14.1704 19.2667 14.5379 18.4642 14.8902 17.6558C14.9097 17.6592 14.9284 17.6617 14.9479 17.665V18.91C14.9479 22.7325 14.9453 26.5542 14.9538 30.3767C14.9547 30.6367 14.9038 30.7025 14.6287 30.6767ZM15.4453 13.8475C14.65 13.8475 13.8547 13.8425 13.0602 13.8517C12.865 13.8542 12.7708 13.8117 12.702 13.6083C11.8227 11.0033 13.8411 8.14833 16.6319 8.0575C17.1997 8.03833 17.7506 8.10083 18.281 8.31083C18.4024 8.35833 18.4814 8.40083 18.4364 8.555C18.1376 9.57833 18.1418 10.6292 18.1495 11.6808C18.1537 12.3058 18.1402 12.93 18.1554 13.5542C18.1614 13.7808 18.1104 13.8592 17.8618 13.8542C17.0571 13.8375 16.2508 13.8475 15.4453 13.8475ZM29.2116 19.4275C28.4698 19.4117 27.7271 19.4192 26.9844 19.4233C26.521 19.425 26.2307 19.67 26.2324 20.0458C26.2333 20.42 26.5287 20.6633 26.9895 20.6717C27.4029 20.6792 27.4029 20.6792 27.4029 21.0908C27.4029 23.8608 27.3995 26.6317 27.4097 29.4017C27.4105 29.665 27.352 29.7433 27.0693 29.7667C23.7947 30.0383 20.5218 30.3275 17.2489 30.6117C16.9951 30.6333 16.7405 30.645 16.4884 30.6783C16.2974 30.7033 16.2151 30.68 16.2151 30.4508C16.2228 26.1917 16.2211 21.9325 16.2211 17.6725C16.2389 17.6658 16.2567 17.6592 16.2754 17.6517C16.6361 18.4758 17.0104 19.295 17.3516 20.1267C17.5146 20.5233 17.7769 20.6825 18.203 20.6758C19.1468 20.6625 20.0907 20.6775 21.0345 20.6692C21.582 20.6642 21.9062 20.2042 21.683 19.7683C21.548 19.505 21.3146 19.4183 21.0252 19.42C20.2511 19.425 19.4761 19.415 18.702 19.4267C18.5043 19.43 18.4033 19.3733 18.3252 19.19C17.7803 17.9175 17.2286 16.6483 16.6675 15.3825C16.5657 15.1517 16.5886 15.0917 16.8619 15.0925C20.3623 15.1008 23.8626 15.0992 27.3639 15.0942C27.5489 15.0933 27.6431 15.1442 27.7169 15.3183C28.2661 16.6 28.8246 17.8775 29.389 19.1525C29.4807 19.3608 29.4765 19.4333 29.2116 19.4275Z" fill="#97A0C4"/>
<path d="M24.0189 19.4276C24.372 19.4343 24.6309 19.6943 24.6317 20.0426C24.6317 20.3926 24.3372 20.6793 23.9883 20.6701C23.6565 20.6609 23.3653 20.3684 23.3662 20.0434C23.367 19.6951 23.6573 19.4209 24.0189 19.4276Z" fill="#97A0C4"/>
<path d="M7.05591 9.07582C6.62049 9.07665 6.36416 8.87498 6.30219 8.57665C6.24278 8.28748 6.4049 7.95915 6.70706 7.88498C7.36147 7.72582 8.02267 7.58748 8.68727 7.47248C8.98519 7.42081 9.27038 7.66665 9.33574 7.95665C9.40025 8.24332 9.24407 8.58582 8.94954 8.65998C8.28665 8.82665 7.61356 8.95582 7.05591 9.07582Z" fill="#97A0C4"/>
<path d="M9.38017 10.5549C9.70101 10.5566 9.94631 10.7574 10.0048 11.0624C10.0626 11.3649 9.91236 11.6699 9.59916 11.7466C8.9456 11.9074 8.2844 12.0458 7.6215 12.1624C7.33716 12.2124 7.05451 11.9733 6.99001 11.7016C6.91786 11.3958 7.05706 11.1083 7.34055 10.9791C7.45853 10.9258 9.24437 10.5541 9.38017 10.5549Z" fill="#97A0C4"/>
</g>
<defs>
<clipPath id="clip0_49_239">
<rect width="32" height="32" fill="white"/>
</clipPath>
</defs>
</svg>
